M48
INCH,TZ
T1C0.012
T2C0.028
T3C0.032
T4C0.040
T5C0.059
T6C0.118
T7C0.173
%
G90
G05
T1
X38346Y-42520
X39843Y-42520
X41339Y-42520
X42598Y-33543
X42835Y-42520
X42913Y-33228
X43425Y-31575
X43425Y-32323
X44331Y-42520
X45000Y-34409
X45709Y-31220
X45709Y-31693
X45709Y-34961
X45827Y-42520
X46024Y-29843
X46575Y-33583
X46614Y-31929
X46969Y-33465
X47008Y-28819
X47008Y-29252
X47008Y-39488
X47323Y-42520
X47835Y-39449
X48740Y-39488
X48819Y-42520
X48898Y-35787
X49488Y-32441
X49606Y-39449
X50079Y-31339
X50315Y-42520
X50472Y-39449
X50669Y-32441
X50906Y-39961
X51339Y-31339
X52244Y-39646
X52323Y-40039
X52992Y-30197
X53504Y-34016
X53622Y-39803
X53622Y-40236
X53937Y-33858
X53976Y-29961
X54055Y-33110
X54134Y-29449
X54173Y-40551
X54252Y-33543
X54488Y-40906
X54646Y-36378
X55512Y-36378
X55591Y-34685
X56024Y-34685
X56063Y-40236
X56181Y-32835
X56772Y-32913
X58346Y-42520
X59843Y-42520
X60157Y-28031
X60276Y-27520
X60276Y-32953
X61102Y-32480
X61339Y-42520
X62008Y-30315
X62835Y-42520
X64055Y-28898
X64055Y-30157
X64055Y-31417
X64055Y-32638
X64331Y-42520
X65827Y-42520
X67323Y-42520
T2
X60945Y-26496
T3
X56929Y-26949
X56929Y-28327
X56929Y-29984
X56929Y-31984
X62638Y-26949
X62638Y-28327
T4
X36535Y-29075
X36535Y-30075
X36535Y-31075
X36535Y-32075
X36535Y-33075
X36535Y-34075
X38736Y-35602
X38736Y-36602
X39000Y-46500
X39736Y-35602
X39736Y-36602
X40000Y-46500
X40736Y-35602
X40736Y-36602
X41000Y-46500
X41736Y-35602
X41736Y-36602
X42000Y-46500
X43000Y-46500
X44000Y-46500
X45000Y-46500
X45657Y-27205
X46000Y-46500
X46657Y-27205
X47000Y-46500
X47657Y-27205
X48000Y-46500
X48657Y-27205
X49000Y-46500
X49657Y-27205
X49709Y-35602
X49709Y-36602
X50000Y-46500
X50657Y-27205
X50709Y-35602
X50709Y-36602
X51657Y-27205
X51709Y-35602
X51709Y-36602
X52657Y-27205
X53657Y-27205
X54657Y-27205
X57449Y-35827
X57449Y-38976
X58000Y-46500
X58449Y-35827
X58449Y-38976
X59000Y-46500
X59449Y-35827
X59449Y-38976
X60000Y-46500
X60449Y-35827
X60449Y-38976
X61000Y-46500
X61449Y-35827
X61449Y-38976
X62000Y-46500
X63000Y-46500
X64000Y-46500
X64224Y-35827
X65000Y-46500
X65224Y-35827
X66000Y-46500
X67000Y-46500
X67362Y-29535
X67362Y-30535
X67362Y-31535
X67362Y-32535
X67362Y-33535
T5
X51811Y-46575
X51890Y-48701
X51890Y-50315
X52283Y-45118
X54016Y-44724
X55748Y-45157
X56024Y-46535
X56063Y-48701
X56063Y-50315
T6
X36693Y-27165
X36693Y-35906
X36693Y-38898
X36693Y-49921
X67677Y-27165
X67677Y-35906
X67677Y-38898
X67677Y-49921
T7
X54000Y-46573
X54000Y-49427
T0
M30
